Coordinates
version=1
nRows=10
nColumns=22
inDegrees=yes

Units are S.I. units (second, meters, Newtons, ...)
If the header above contains a line with 'inDegrees', this indicates whether rotational values are in degrees (yes) or radians (no).

endheader
time	pelvis_tilt	pelvis_list	pelvis_rotation	pelvis_tx	pelvis_ty	pelvis_tz	hip_flexion_r	hip_adduction_r	hip_rotation_r	knee_angle_r	ankle_angle_r	subtalar_angle_r	hip_flexion_l	hip_adduction_l	hip_rotation_l	knee_angle_l	ankle_angle_l	subtalar_angle_l	lumbar_extension	lumbar_bending	lumbar_rotation
      1.23000000	    -11.24616096	      4.10503621	    -35.85212369	     -0.94996307	      0.87857078	     -0.38103145	     10.92362135	      1.19316733	      0.15786513	     -7.38730936	     13.48282263	     -0.52949290	      8.56720998	     -2.45672214	     -2.80917382	     -9.08035840	     16.69917634	     -0.72466652	      6.05816336	      1.83621932	     11.70616045
      1.24000000	    -11.14805319	      4.12253629	    -35.73015571	     -0.94854135	      0.87837219	     -0.38178796	     11.19706965	      1.00018632	      0.08347050	     -8.16988097	     13.92168196	     -0.46213194	      8.48513374	     -2.26254260	     -2.64735286	     -9.14942880	     16.84152972	     -0.86172413	      5.94346416	      1.77832260	     11.68342312
      1.25000000	    -11.06368547	      4.18256267	    -35.60425846	     -0.94710676	      0.87807645	     -0.38260017	     11.58129432	      0.77227658	      0.01154777	     -9.08522408	     14.37582327	     -0.31294209	      8.44998770	     -2.03391718	     -2.44473200	     -9.23723815	     17.00078155	     -1.09276346	      5.86781591	      1.68902692	     11.68503256
      1.26000000	    -10.94691527	      4.21197517	    -35.47972232	     -0.94560638	      0.87778461	     -0.38341976	     11.97559436	      0.54729835	     -0.05987618	    -10.11698657	     14.89753530	     -0.16213202	      8.37431836	     -1.80969600	     -2.27101861	     -9.34632020	     17.19410616	     -1.29010969	      5.73932184	      1.61072479	     11.65979662
      1.27000000	    -10.77244617	      4.25482908	    -35.35363649	     -0.94405588	      0.87749996	     -0.38424768	     12.39167434	      0.27070365	     -0.13297611	    -11.27041552	     15.44317307	     -0.07618068	      8.25438261	     -1.53529762	     -2.07289735	     -9.45868129	     17.38089821	     -1.38864285	      5.56339367	      1.47550719	     11.64401030
      1.28000000	    -10.59141824	      4.30357682	    -35.23218006	     -0.94249041	      0.87715873	     -0.38508361	     12.88628880	     -0.01736528	     -0.20035338	    -12.57465632	     16.00550031	      0.05150234	      8.14085690	     -1.25141380	     -1.87056236	     -9.59201804	     17.60175384	     -1.51343526	      5.38155084	      1.32973922	     11.62556130
      1.29000000	    -10.40998418	      4.36966056	    -35.12239465	     -0.94090844	      0.87675206	     -0.38590375	     13.47755427	     -0.32210176	     -0.26317135	    -14.03756228	     16.53629461	      0.25027040	      8.02330518	     -0.95302173	     -1.66830107	     -9.70490103	     17.84786976	     -1.67988288	      5.20977904	      1.16839420	     11.60136656
      1.30000000	    -10.17215149	      4.41792560	    -35.01934487	     -0.93930810	      0.87638125	     -0.38670724	     14.07998534	     -0.64608365	     -0.32231801	    -15.63485101	     17.05591293	      0.42697484	      7.84312782	     -0.63773214	     -1.46275788	     -9.82194525	     18.09263855	     -1.80385089	      4.96500808	      0.98085540	     11.58456748
      1.31000000	     -9.92328350	      4.45787012	    -34.92804971	     -0.93773225	      0.87599320	     -0.38748924	     14.75369369	     -0.96719579	     -0.36598955	    -17.38741996	     17.52757873	      0.67092873	      7.64341266	     -0.32806031	     -1.27078321	     -9.93707530	     18.35602808	     -1.95408249	      4.69433509	      0.79157619	     11.57455247
      1.32000000	     -9.60566101	      4.48039116	    -34.85283770	     -0.93614644	      0.87569709	     -0.38822453	     15.43846017	     -1.31174312	     -0.39954466	    -19.28964808	     17.89321929	      0.79864118	      7.32927259	      0.00329808	     -1.08561865	     -9.97767230	     18.57251280	     -2.00005587	      4.33771817	      0.56808359	     11.56865322
